<svg width="80" height="120" viewBox="0 0 40 60" xmlns="http://www.w3.org/2000/svg">
  <!-- Shadow for depth -->
  <ellipse cx="20" cy="55" rx="10" ry="4" fill="rgba(0, 0, 0, 0.2)" />

  <!-- Pin shape with border -->
  <path d="M20 0C10 0 2 8 2 18c0 11 11 22 17 30 1 1 3 1 4 0 6-8 17-19 17-30 0-10-8-18-18-18z"
        fill="#e74c3c" stroke="#ffffff" stroke-width="2" />

  <!-- Vehicle (scaled for pin size) -->
  <rect x="11" y="11" width="18" height="12" rx="2" ry="2" fill="#ffffff"/>
  <rect x="13" y="13" width="4" height="6" fill="#34495e"/>
  <rect x="18" y="13" width="4" height="6" fill="#34495e"/>
  <rect x="23" y="13" width="4" height="6" fill="#34495e"/>
  <circle cx="15" cy="24" r="2" fill="#34495e"/>
  <circle cx="25" cy="24" r="2" fill="#34495e"/>
</svg>
